# xmcd
#
# Track frame offsets:
#	182
#	15410
#	27285
#	37950
#	54140
#	66422
#	86602
#	98657
#	120827
#	134725
#	148072
#	163612
#	173530
#	186857
#
# Disc length: 2597 seconds
#
# Revision: 0
# Processed by: cddbd v1.5PL3 Copyright (c) Steve Scherf et al.
# Submitted via: audiograbber 1.82.02
#
DISCID=ae0a230e
DTITLE=Ch B O - Chval Brothers Quintet - Par tonu
DYEAR=1993
DGENRE=Bluegrass
TTITLE0=Vahavy
TTITLE1=Pres dno sklenky
TTITLE2=Zpivej nam, divko Cindy
TTITLE3=Two Highways
TTITLE4=Kdyz se dabel prevleka
TTITLE5=Gentle River
TTITLE6=Hraj dal
TTITLE7=Northern Rail
TTITLE8=Par tonu
TTITLE9=Tvuj den sel spat
TTITLE10=Cardas snu
TTITLE11=Ja te svadim dal
TTITLE12=Starnouci mesto
TTITLE13=Deep River
EXTD=
EXTT0=
EXTT1=
EXTT2=
EXTT3=
EXTT4=
EXTT5=
EXTT6=
EXTT7=
EXTT8=
EXTT9=
EXTT10=
EXTT11=
EXTT12=
EXTT13=
PLAYORDER=
